<svg width="392" height="39" viewBox="0 0 392 39" fill="none" xmlns="http://www.w3.org/2000/svg">
<path d="M16.4531 37.3899C13.4616 37.3899 10.9343 37.1836 8.81966 36.7194C6.75658 36.2552 5.05454 35.5331 3.71354 34.45C2.42412 33.3669 1.44415 31.9227 0.876808 30.1175C0.309462 28.3124 0 26.043 0 23.3094C0 20.5242 0.309462 18.2033 0.876808 16.3981C1.49573 14.5929 2.42412 13.1487 3.71354 12.0656C5.00297 10.9825 6.70501 10.2604 8.81966 9.79622C10.9343 9.38361 13.4616 9.12572 16.4531 9.12572C18.5677 9.12572 20.3729 9.22888 21.7655 9.43518C23.2096 9.64149 24.3959 9.89938 25.2727 10.2604C26.2011 10.5699 26.8716 10.9309 27.3358 11.3435C27.8 11.7046 28.161 12.0656 28.3673 12.4266V3.45226L32.8545 0.976562V36.8741H28.3673V32.6448L27.2326 34.0374C26.5621 34.7079 25.8401 35.2237 25.0664 35.6363C24.2927 36.0489 23.1581 36.4099 21.7139 36.8225C20.3213 37.1836 18.5677 37.3899 16.4531 37.3899ZM16.4531 33.6248C17.9488 33.6248 19.2898 33.5732 20.4761 33.5216C21.6623 33.47 22.6939 33.3153 23.5707 33.0574C24.4475 32.8511 25.2211 32.4901 25.8401 32.0259C26.459 31.5617 26.9748 30.9428 27.3358 30.2207C27.7484 29.447 28.0063 28.5187 28.161 27.4355C28.3673 26.3008 28.4189 24.9598 28.4189 23.4125C28.4189 21.7621 28.3158 20.3695 28.161 19.2348C28.0063 18.1001 27.6968 17.1202 27.3358 16.3465C26.9232 15.5728 26.459 14.9539 25.8401 14.4897C25.2211 14.0255 24.4475 13.7161 23.5707 13.4582C22.6939 13.2003 21.6623 13.0456 20.4761 12.994C19.2898 12.9424 17.9488 12.8908 16.4531 12.8908C14.6994 12.8908 13.2037 12.9424 11.9143 13.0456C10.6249 13.1487 9.54174 13.355 8.66493 13.6129C7.78812 13.8708 7.06604 14.2834 6.4987 14.7476C5.93135 15.2634 5.51873 15.8823 5.20927 16.656C4.89981 17.4296 4.6935 18.358 4.59035 19.4411C4.4872 20.5242 4.43562 21.8137 4.43562 23.2578C4.43562 24.702 4.4872 25.9914 4.59035 27.0229C4.6935 28.106 4.89981 29.0344 5.20927 29.7565C5.51873 30.5302 5.93135 31.1491 6.4987 31.6649C7.06604 32.1806 7.78812 32.5417 8.66493 32.7995C9.54174 33.0574 10.6249 33.2637 11.9143 33.3669C13.2037 33.5732 14.6994 33.6248 16.4531 33.6248Z" fill="#7C7C7C"/>
<path d="M54.6209 37.3884C51.6294 37.3884 49.1022 37.1821 46.9875 36.7695C44.9244 36.3568 43.2224 35.6348 41.8814 34.6032C40.592 33.5717 39.612 32.2307 39.0447 30.5286C38.4773 28.8266 38.1678 26.7119 38.1678 24.1331C38.1678 21.1932 38.4773 18.7691 39.0447 16.8092C39.612 14.9008 40.592 13.3535 41.8814 12.2188C43.1708 11.0841 44.8729 10.3105 46.9875 9.84628C49.1022 9.38209 51.6294 9.17578 54.6209 9.17578C56.7356 9.17578 58.5923 9.33051 60.1912 9.63997C61.7385 9.94944 63.0795 10.4136 64.2142 10.981C65.3489 11.5483 66.2257 12.2704 66.9478 13.1472C67.6183 13.9724 68.1856 14.9008 68.5983 15.7776C69.0109 16.706 69.2688 17.7891 69.4235 19.027C69.5782 20.2648 69.6298 21.6058 69.6298 22.9984L69.2688 24.4941H42.655C42.655 26.5056 42.8614 28.1561 43.274 29.4455C43.6866 30.735 44.3571 31.6633 45.2855 32.2823C46.2139 32.8496 47.4517 33.2622 48.999 33.417C50.5463 33.5717 52.4031 33.6748 54.6725 33.6748C56.7356 33.6748 58.4376 33.6233 59.7786 33.5201C61.1196 33.417 62.2027 33.2106 62.9764 32.9012C63.75 32.5917 64.3174 32.1791 64.6268 31.6118C64.9363 31.0444 65.091 30.3223 65.091 29.4455H69.5782C69.5782 30.8897 69.3203 32.1275 68.8046 33.1591C68.2888 34.1906 67.4636 35.0158 66.2773 35.6348C65.091 36.2537 63.5437 36.7179 61.6354 37.0273C59.7786 37.2336 57.4061 37.3884 54.6209 37.3884ZM54.6209 12.9409C53.1252 12.9409 51.7842 12.9925 50.5979 13.0441C49.4116 13.0956 48.3801 13.2504 47.5033 13.4567C46.6265 13.663 45.8528 13.9724 45.2339 14.3851C44.615 14.7977 44.0992 15.2619 43.7382 15.7776C43.3771 16.2934 43.0677 17.0671 42.9129 18.047C42.7582 19.027 42.655 20.2133 42.655 21.5543H65.091C65.091 19.7491 64.8847 18.3049 64.5237 17.2734C64.1111 16.2418 63.4921 15.365 62.6669 14.6945C61.8417 14.024 60.7586 13.5598 59.4176 13.3019C58.0766 13.0441 56.4777 12.9409 54.6209 12.9409Z" fill="#7C7C7C"/>
<path d="M98.7724 18.6667C98.7724 17.532 98.6692 16.6037 98.5145 15.8816C98.3598 15.1595 97.9471 14.5406 97.3798 14.128C96.7609 13.6638 95.8841 13.3543 94.6978 13.1996C93.5115 12.9933 91.8611 12.9417 89.798 12.9417C87.7865 12.9417 86.136 13.0964 84.8982 13.4575C83.6088 13.8185 82.6288 14.2827 81.9067 14.9532C81.1846 15.5721 80.7204 16.3458 80.4626 17.2226C80.2047 18.0994 80.1015 19.0794 80.1015 20.214V36.8734H75.5627V9.89865H80.0499V14.1795C80.2047 13.7153 80.5141 13.148 80.9267 12.5807C81.3394 12.0133 82.0099 11.446 82.8351 10.9302C83.7119 10.4144 84.795 10.0018 86.1876 9.64077C87.5286 9.27973 89.2306 9.125 91.2937 9.125C93.6147 9.125 95.523 9.33131 97.0188 9.74392C98.4629 10.1565 99.6492 10.7755 100.423 11.5491C101.248 12.3743 101.815 13.3543 102.073 14.5406C102.383 15.7269 102.486 17.0679 102.486 18.6152H98.7724V18.6667Z" fill="#7C7C7C"/>
<path d="M133.945 36.8726H129.458V21.6574C129.458 20.0585 129.355 18.6659 129.149 17.5312C128.942 16.3966 128.53 15.5197 127.859 14.8492C127.189 14.1787 126.312 13.663 125.126 13.3535C123.94 13.0441 122.392 12.8893 120.484 12.8893C118.369 12.8893 116.667 13.0441 115.275 13.4051C113.934 13.7661 112.85 14.2303 112.077 14.9008C111.303 15.5197 110.736 16.2934 110.478 17.1702C110.168 18.047 110.014 19.027 110.014 20.1617V36.8726H105.475V9.89786H109.962V14.1787C109.962 14.1272 110.065 13.9724 110.168 13.7146C110.272 13.4567 110.53 13.1472 110.839 12.7862C111.148 12.4251 111.613 12.0125 112.128 11.5999C112.696 11.1873 113.418 10.7747 114.295 10.4136C115.171 10.0526 116.255 9.74313 117.492 9.53682C118.73 9.27893 120.226 9.17578 121.928 9.17578C123.63 9.17578 125.074 9.27894 126.312 9.48524C127.55 9.69155 128.633 10.001 129.51 10.4136C130.387 10.8262 131.109 11.342 131.676 11.9609C132.243 12.5799 132.656 13.3019 133.017 14.0756C133.275 13.663 133.688 13.1472 134.255 12.5799C134.822 12.0125 135.596 11.4967 136.627 10.981C137.607 10.4652 138.897 10.0526 140.393 9.69155C141.888 9.33051 143.745 9.17578 145.911 9.17578C147.717 9.17578 149.264 9.27893 150.553 9.53682C151.843 9.7947 152.926 10.1557 153.803 10.6199C154.679 11.0841 155.401 11.7031 155.917 12.3736C156.433 13.0956 156.846 13.8693 157.155 14.7977C157.465 15.7261 157.619 16.7576 157.722 17.8923C157.826 19.027 157.877 20.2648 157.877 21.6058V36.821H153.39V21.6574C153.39 20.0585 153.287 18.6659 153.081 17.5312C152.874 16.3966 152.462 15.5197 151.791 14.8492C151.121 14.1787 150.244 13.663 149.058 13.3535C147.871 13.0441 146.324 12.8893 144.416 12.8893C142.301 12.8893 140.599 13.0441 139.206 13.4051C137.865 13.7661 136.782 14.2303 136.009 14.9008C135.235 15.5197 134.668 16.2934 134.358 17.1702C134.049 18.047 133.894 19.027 133.894 20.1617V36.8726H133.945Z" fill="#7C7C7C"/>
<path d="M180.932 0C170.359 0 161.797 8.56178 161.797 19.1351C161.797 29.7083 170.359 38.2701 180.932 38.2701C191.506 38.2701 200.067 29.7083 200.067 19.1351C200.067 8.56178 191.506 0 180.932 0ZM180.881 5.20927C188.824 5.20927 195.271 11.5017 195.271 19.754H194.755C194.755 12.0174 188.514 5.72504 180.829 5.72504C173.144 5.72504 167.007 11.9143 167.007 19.5992C167.007 27.2842 173.299 33.4734 181.035 33.4734V33.9892C172.783 33.9892 166.491 27.4905 166.491 19.5477C166.542 11.5532 172.938 5.20927 180.881 5.20927ZM180.726 29.141C186.193 29.141 190.526 24.7054 190.526 19.2382C190.526 13.771 186.193 9.33543 180.52 9.33543V8.81966C186.709 8.81966 191.041 13.4616 191.041 19.2382C191.041 24.9632 186.451 29.6568 180.726 29.6568C175.001 29.6568 170.307 24.8601 170.307 19.1866H170.823C170.823 24.9117 175.259 29.141 180.726 29.141ZM173.144 19.1866C173.144 14.9573 176.548 11.5532 180.778 11.5532C185.007 11.5532 188.411 14.9573 188.411 19.1866C188.411 23.4159 185.007 26.82 180.778 26.82C176.548 26.8716 173.144 23.4159 173.144 19.1866ZM180.881 36.3618C171.648 36.3618 164.17 28.5221 164.17 19.754H164.686C164.686 28.5221 171.958 35.846 180.881 35.846C189.804 35.846 197.179 28.5221 197.179 19.5992C197.179 10.6764 189.804 3.3525 181.035 3.3525V2.83673C190.319 2.83673 197.695 10.4185 197.695 19.5992C197.695 28.7799 190.061 36.3618 180.881 36.3618Z" fill="url(#paint0_linear_1665_94940)"/>
<path d="M263.559 36.8705V21.81C263.559 20.2112 263.456 18.8702 263.198 17.7355C262.94 16.6523 262.476 15.724 261.702 15.0535C260.98 14.383 259.897 13.8672 258.556 13.6093C257.215 13.2998 255.41 13.1451 253.192 13.1451C250.768 13.1451 248.808 13.2998 247.26 13.6609C245.713 14.0219 244.527 14.4861 243.65 15.105C242.773 15.724 242.154 16.4976 241.845 17.3744C241.535 18.2512 241.329 19.2312 241.329 20.3143V36.8189H236.893V1.33398H241.329V14.4345C241.638 13.7125 242.103 13.0935 242.67 12.5778C243.237 12.062 243.908 11.5978 244.63 11.2368C245.352 10.8757 246.177 10.5663 247.054 10.36C247.931 10.1536 248.808 9.94734 249.684 9.84418C250.561 9.74103 251.438 9.63788 252.315 9.5863C253.192 9.53472 253.965 9.53472 254.687 9.53472C256.647 9.53472 258.349 9.63788 259.794 9.89576C261.238 10.1536 262.424 10.5147 263.404 10.9789C264.384 11.4431 265.209 12.0104 265.776 12.7325C266.395 13.403 266.86 14.2282 267.169 15.1566C267.479 16.085 267.736 17.1165 267.84 18.2512C267.943 19.3859 267.994 20.6238 267.994 21.9648V37.0252H263.559V36.8705Z" fill="#7C7C7C"/>
<path d="M273.254 23.2527C273.254 20.5707 273.563 18.3013 274.131 16.5477C274.698 14.7941 275.678 13.3499 276.968 12.3184C278.257 11.2868 279.959 10.5647 282.022 10.1521C284.085 9.73951 286.612 9.5332 289.552 9.5332C292.492 9.5332 295.02 9.73951 297.083 10.1521C299.146 10.5647 300.848 11.2868 302.137 12.3184C303.427 13.3499 304.355 14.7425 304.974 16.5477C305.541 18.3013 305.851 20.5707 305.851 23.2527C305.851 25.9863 305.541 28.3072 304.974 30.1124C304.407 31.9176 303.427 33.3618 302.137 34.4449C300.848 35.528 299.146 36.2501 297.083 36.7143C295.02 37.1785 292.492 37.3848 289.552 37.3848C286.612 37.3848 284.085 37.1785 282.022 36.7143C279.959 36.2501 278.257 35.528 276.968 34.4449C275.678 33.3618 274.75 31.9176 274.131 30.1124C273.512 28.2556 273.254 25.9863 273.254 23.2527ZM277.69 23.2527C277.69 24.6968 277.741 25.9863 277.844 27.0694C277.948 28.1525 278.154 29.0809 278.463 29.8545C278.773 30.6282 279.185 31.2471 279.701 31.7629C280.217 32.2271 280.939 32.6397 281.816 32.9491C282.693 33.2586 283.776 33.4133 285.014 33.5681C286.251 33.6712 287.747 33.7228 289.501 33.7228C290.997 33.7228 292.286 33.6712 293.472 33.6196C294.658 33.5681 295.638 33.4133 296.515 33.1555C297.392 32.8976 298.114 32.5881 298.733 32.1239C299.352 31.6597 299.868 31.0408 300.229 30.2671C300.59 29.4935 300.899 28.5135 301.054 27.3788C301.209 26.2441 301.312 24.8516 301.312 23.2527C301.312 21.7054 301.209 20.3644 301.054 19.2297C300.899 18.1466 300.59 17.2182 300.229 16.4445C299.868 15.7224 299.352 15.1035 298.733 14.6909C298.114 14.2783 297.392 13.9172 296.515 13.7109C295.638 13.5046 294.607 13.3499 293.472 13.2983C292.286 13.2467 290.997 13.1952 289.501 13.1952C288.005 13.1952 286.716 13.2467 285.529 13.2983C284.343 13.3499 283.363 13.5046 282.486 13.7109C281.61 13.9172 280.887 14.2783 280.269 14.6909C279.65 15.1035 279.134 15.7224 278.773 16.4445C278.412 17.2182 278.102 18.095 277.948 19.2297C277.741 20.3128 277.69 21.6538 277.69 23.2527Z" fill="#7C7C7C"/>
<path d="M316.892 5.7696H312.456V1.33398H316.892V5.7696ZM312.456 10.2052H316.892V36.8705H312.456V10.2052Z" fill="#7C7C7C"/>
<path d="M323.591 23.4598C323.591 21.603 323.694 20.0041 323.849 18.6115C324.055 17.219 324.364 15.9811 324.828 14.9496C325.293 13.918 325.912 13.0412 326.737 12.3707C327.51 11.6487 328.542 11.1329 329.728 10.6687C330.915 10.2561 332.359 9.94661 334.061 9.74031C335.711 9.534 337.671 9.48242 339.889 9.48242C342.829 9.48242 345.305 9.68873 347.213 10.0498C349.121 10.4108 350.617 10.9782 351.752 11.7002C352.886 12.4739 353.66 13.4023 354.073 14.537C354.485 15.6717 354.743 17.0642 354.743 18.6631H350.307C350.307 18.0958 350.307 17.58 350.256 17.0642C350.204 16.5485 350.101 16.1358 349.895 15.7232C349.689 15.3106 349.379 14.9496 348.966 14.6401C348.554 14.3307 347.935 14.0728 347.161 13.8665C346.388 13.6602 345.408 13.5054 344.221 13.4023C343.035 13.2991 341.591 13.2475 339.837 13.2475C337.877 13.2475 336.175 13.2991 334.834 13.4538C333.493 13.6086 332.359 13.8149 331.482 14.1243C330.605 14.4338 329.935 14.8464 329.419 15.3622C328.955 15.878 328.594 16.5485 328.387 17.2705C328.181 18.0442 328.026 18.921 328.026 19.9525C327.975 20.9841 327.975 22.1704 327.975 23.5114C327.975 24.8008 327.975 25.9871 328.026 27.0186C328.078 28.0501 328.181 28.9269 328.387 29.649C328.594 30.4227 328.955 31.0416 329.419 31.5574C329.883 32.0731 330.554 32.4857 331.482 32.7952C332.359 33.1047 333.493 33.3626 334.834 33.4657C336.175 33.6204 337.826 33.672 339.837 33.672C341.591 33.672 343.035 33.6204 344.221 33.5173C345.408 33.4141 346.388 33.2078 347.161 33.0015C347.935 32.7952 348.502 32.4857 348.966 32.1763C349.379 31.8668 349.689 31.4542 349.895 31.0416C350.101 30.629 350.204 30.1648 350.256 29.649C350.307 29.1332 350.307 28.5659 350.307 27.9986H354.743C354.743 29.5974 354.537 31.0416 354.073 32.2279C353.66 33.4141 352.886 34.3941 351.752 35.1678C350.617 35.9414 349.121 36.5088 347.213 36.8698C345.305 37.2308 342.88 37.4371 339.889 37.4371C337.671 37.4371 335.711 37.334 334.061 37.1793C332.41 36.9729 330.966 36.6635 329.728 36.2509C328.542 35.8383 327.51 35.2709 326.737 34.5488C325.963 33.8268 325.293 33.0015 324.828 31.97C324.364 30.9384 324.055 29.7522 323.849 28.3596C323.642 26.8639 323.591 25.265 323.591 23.4598Z" fill="#7C7C7C"/>
<path d="M376.149 37.3856C373.209 37.3856 370.682 37.1793 368.619 36.7666C366.555 36.354 364.853 35.6319 363.564 34.652C362.275 33.672 361.346 32.331 360.727 30.629C360.16 28.9269 359.85 26.8123 359.85 24.285C359.85 21.3451 360.16 18.9726 360.727 17.0642C361.295 15.1559 362.275 13.6602 363.564 12.5255C364.853 11.3908 366.555 10.6171 368.619 10.1529C370.682 9.68873 373.209 9.48242 376.149 9.48242C378.263 9.48242 380.069 9.63715 381.668 9.94661C383.215 10.2561 384.556 10.7203 385.639 11.2876C386.722 11.855 387.65 12.577 388.321 13.4023C388.991 14.2275 389.559 15.1043 389.92 16.0327C390.332 16.9611 390.59 18.0442 390.745 19.282C390.9 20.5199 390.951 21.8093 390.951 23.2019L390.59 24.6976H364.286C364.286 26.7091 364.492 28.308 364.905 29.5974C365.318 30.8869 365.988 31.8152 366.917 32.3826C367.845 32.9499 369.083 33.3626 370.578 33.5173C372.074 33.672 373.983 33.7752 376.2 33.7752C378.212 33.7752 379.914 33.7236 381.255 33.6204C382.596 33.5173 383.627 33.311 384.453 33.0015C385.226 32.6921 385.794 32.2794 386.103 31.7121C386.413 31.1447 386.567 30.4742 386.567 29.5974H391.003C391.003 31.0416 390.745 32.2794 390.229 33.2594C389.714 34.2909 388.888 35.0646 387.754 35.7351C386.619 36.354 385.072 36.8182 383.163 37.0761C381.255 37.2308 378.934 37.3856 376.149 37.3856ZM376.149 13.196C374.653 13.196 373.364 13.2475 372.177 13.2991C370.991 13.3507 370.011 13.5054 369.134 13.7117C368.258 13.918 367.535 14.2275 366.917 14.6401C366.298 15.0527 365.782 15.5169 365.421 16.0327C365.06 16.5485 364.75 17.3221 364.596 18.3021C364.441 19.282 364.338 20.4167 364.338 21.8093H386.567C386.567 20.0041 386.361 18.6115 386 17.58C385.639 16.5485 385.02 15.7232 384.195 15.0527C383.37 14.3822 382.286 13.918 380.997 13.7117C379.604 13.2991 378.006 13.196 376.149 13.196Z" fill="#7C7C7C"/>
<path d="M202.236 23.4106C202.236 21.5538 202.339 19.9549 202.494 18.5108C202.7 17.1182 203.009 15.8804 203.474 14.8488C203.938 13.8173 204.557 12.9405 205.382 12.2184C206.156 11.4963 207.187 10.9805 208.425 10.5163C209.663 10.1037 211.107 9.79427 212.758 9.58796C214.408 9.38166 216.368 9.33008 218.586 9.33008C221.577 9.33008 224.001 9.53639 225.961 9.89742C227.87 10.2585 229.417 10.8258 230.5 11.5479C231.635 12.3215 232.408 13.2499 232.821 14.3846C233.234 15.5193 233.491 16.9119 233.491 18.5108H229.004C229.004 17.9434 229.004 17.4277 228.953 16.9119C228.901 16.3961 228.798 15.9835 228.592 15.5709C228.385 15.1583 228.076 14.7972 227.663 14.4878C227.251 14.1783 226.632 13.9204 225.858 13.6625C225.084 13.4562 224.104 13.3015 222.918 13.1984C221.732 13.0952 220.288 13.0436 218.534 13.0436C216.574 13.0436 214.872 13.0952 213.531 13.2499C212.19 13.4047 211.055 13.611 210.179 13.9204C209.302 14.2299 208.631 14.6425 208.116 15.2099C207.651 15.7256 207.29 16.3961 207.084 17.1698C206.878 17.9434 206.723 18.8202 206.723 19.8518C206.671 20.8833 206.671 22.0696 206.671 23.4106C206.671 24.7516 206.671 25.8863 206.723 26.9178C206.775 27.9494 206.878 28.8262 207.084 29.5998C207.29 30.3735 207.651 30.9924 208.116 31.5082C208.58 32.0239 209.302 32.4366 210.179 32.7976C211.055 33.1071 212.19 33.3649 213.531 33.4681C214.872 33.6228 216.574 33.6744 218.534 33.6744C220.288 33.6744 221.732 33.6228 222.918 33.5197C224.104 33.4165 225.084 33.2102 225.858 33.0039C226.632 32.7976 227.251 32.4881 227.663 32.1787C228.076 31.8692 228.385 31.4566 228.592 31.044C228.798 30.6314 228.901 30.1672 228.953 29.6514C229.004 29.1356 229.004 28.5683 229.004 28.0009H233.491C233.491 29.6514 233.285 31.044 232.821 32.2303C232.408 33.4165 231.635 34.3965 230.5 35.1701C229.365 35.9438 227.87 36.5111 225.961 36.8722C224.053 37.2332 221.577 37.4395 218.586 37.4395C216.368 37.4395 214.408 37.3364 212.758 37.1816C211.107 36.9753 209.663 36.6659 208.425 36.2533C207.187 35.8406 206.207 35.2733 205.382 34.5512C204.608 33.8291 203.938 33.0039 203.474 31.9724C203.009 30.9408 202.648 29.703 202.494 28.3104C202.287 26.8147 202.236 25.2158 202.236 23.4106Z" fill="#7C7C7C"/>
<defs>
<linearGradient id="paint0_linear_1665_94940" x1="159.889" y1="18.9283" x2="201.667" y2="18.9283" gradientUnits="userSpaceOnUse">
<stop offset="0.110888" stop-color="#53EDC8"/>
<stop offset="0.989038" stop-color="#00AF86"/>
</linearGradient>
</defs>
</svg>
