<svg width="20" height="20" viewBox="0 0 20 20" fill="none" xmlns="http://www.w3.org/2000/svg">
<path d="M10 0C11.9778 0 13.9112 0.58649 15.5557 1.6853C17.2002 2.78412 18.4819 4.3459 19.2388 6.17316C19.9957 8.00043 20.1937 10.0111 19.8078 11.9509C19.422 13.8907 18.4696 15.6725 17.0711 17.0711C15.6725 18.4696 13.8907 19.422 11.9509 19.8078C10.0111 20.1937 8.00043 19.9957 6.17316 19.2388C4.3459 18.4819 2.78412 17.2002 1.6853 15.5557C0.58649 13.9112 0 11.9778 0 10C0 7.34783 1.05357 4.8043 2.92893 2.92893C4.8043 1.05357 7.34783 0 10 0V0Z" fill="#7C7C7C"/>
<path d="M5.57745 14.7321C5.61817 14.7323 5.65852 14.7244 5.6961 14.7087C5.73367 14.693 5.76769 14.6699 5.79612 14.6407L6.81745 13.6214L7.65745 14.4634C7.68602 14.4924 7.72007 14.5154 7.75761 14.531C7.79515 14.5467 7.83543 14.5548 7.87612 14.5547C7.91684 14.555 7.95719 14.547 7.99476 14.5314C8.03234 14.5157 8.06636 14.4925 8.09479 14.4634C8.15255 14.4054 8.18499 14.3269 8.18499 14.2451C8.18499 14.1632 8.15255 14.0847 8.09479 14.0267L7.25279 13.1847L8.39079 12.0467C9.15147 12.6859 10.1299 13.0061 11.1213 12.9401C12.1127 12.8741 13.0401 12.4272 13.7094 11.6928C14.3787 10.9584 14.7379 9.99364 14.7119 9.0004C14.6858 8.00715 14.2766 7.0625 13.5697 6.36423C12.8629 5.66595 11.9133 5.26821 10.9198 5.25428C9.92632 5.24036 8.96597 5.61132 8.23983 6.2895C7.51369 6.96768 7.07808 7.90049 7.0242 8.89262C6.97032 9.88474 7.30236 10.8592 7.95079 11.6121L6.81745 12.7454L5.97345 11.9054C5.94489 11.8764 5.91084 11.8534 5.8733 11.8378C5.83576 11.8221 5.79547 11.814 5.75479 11.8141C5.71407 11.8138 5.67372 11.8217 5.63614 11.8374C5.59857 11.8531 5.56455 11.8762 5.53612 11.9054C5.47835 11.9634 5.44592 12.0419 5.44592 12.1237C5.44592 12.2056 5.47835 12.2841 5.53612 12.3421L6.37812 13.1841L5.35879 14.2041C5.31555 14.2473 5.28611 14.3024 5.27419 14.3624C5.26226 14.4224 5.26839 14.4846 5.29179 14.5411C5.31519 14.5976 5.35482 14.6459 5.40566 14.6799C5.45651 14.7139 5.51629 14.732 5.57745 14.7321ZM8.60212 6.83006C9.13002 6.3018 9.82476 5.97292 10.568 5.89946C11.3112 5.82601 12.0568 6.01253 12.6779 6.42723C13.299 6.84194 13.7571 7.45918 13.9741 8.17377C14.1912 8.88837 14.1537 9.65611 13.8681 10.3462C13.5825 11.0362 13.0665 11.6059 12.408 11.9582C11.7495 12.3104 10.9892 12.4235 10.2567 12.278C9.52413 12.1325 8.86472 11.7375 8.39077 11.1604C7.91682 10.5832 7.65767 9.85955 7.65745 9.11273C7.65649 8.68873 7.73947 8.26874 7.90161 7.87697C8.06374 7.48519 8.30182 7.12939 8.60212 6.83006Z" fill="#F7F7F7" stroke="#F7F7F7" stroke-width="0.5"/>
</svg>
