<svg width="20" height="20" viewBox="0 0 20 20" fill="none" xmlns="http://www.w3.org/2000/svg">
<path d="M10 20C15.5228 20 20 15.5228 20 10C20 4.47715 15.5228 0 10 0C4.47715 0 0 4.47715 0 10C0 15.5228 4.47715 20 10 20Z" fill="#7C7C7C"/>
<path d="M14.4241 5.2666H11.9468C11.8648 5.2666 11.7861 5.29919 11.7281 5.35721C11.6701 5.41522 11.6375 5.4939 11.6375 5.57594C11.6375 5.65798 11.6701 5.73666 11.7281 5.79467C11.7861 5.85268 11.8648 5.88527 11.9468 5.88527H13.6621L11.6101 7.94994C10.8509 7.29954 9.86945 6.96813 8.87135 7.02511C7.87324 7.0821 6.9359 7.52306 6.25562 8.25565C5.57534 8.98824 5.2049 9.95562 5.22187 10.9552C5.23885 11.9548 5.64193 12.9091 6.34669 13.6181C7.05145 14.3272 8.00323 14.7361 9.00269 14.7591C10.0022 14.7822 10.9718 14.4176 11.7085 13.7418C12.4452 13.066 12.8919 12.1314 12.9549 11.1336C13.018 10.1359 12.6926 9.15246 12.0468 8.38927L14.1135 6.3346V8.05127C14.1135 8.13331 14.1461 8.21199 14.2041 8.27C14.2621 8.32801 14.3408 8.3606 14.4228 8.3606C14.5048 8.3606 14.5835 8.32801 14.6415 8.27C14.6995 8.21199 14.7321 8.13331 14.7321 8.05127V5.57594C14.7325 5.53533 14.7248 5.49506 14.7094 5.45745C14.6941 5.41985 14.6715 5.38567 14.6428 5.35689C14.6141 5.32811 14.5801 5.30531 14.5425 5.28981C14.505 5.27432 14.4647 5.26643 14.4241 5.2666ZM12.3448 10.8833C12.3455 11.631 12.0869 12.3558 11.6131 12.9342C11.1392 13.5126 10.4795 13.9087 9.74626 14.0552C9.01303 14.2016 8.25171 14.0892 7.59207 13.7372C6.93242 13.3851 6.41528 12.8152 6.12877 12.1246C5.84227 11.4339 5.80414 10.6653 6.02088 9.94972C6.23762 9.23411 6.69582 8.61582 7.31739 8.20022C7.93895 7.78462 8.6854 7.59743 9.42952 7.67056C10.1736 7.74369 10.8694 8.07262 11.3981 8.60127C11.699 8.90015 11.9376 9.25574 12.1001 9.64744C12.2626 10.0391 12.3457 10.4592 12.3448 10.8833Z" fill="white" stroke="white" stroke-width="0.5"/>
</svg>
