<svg width="26" height="19" viewBox="0 0 26 19" fill="none" xmlns="http://www.w3.org/2000/svg">
<path d="M25.2441 1.74646V17.2185C25.2477 17.4226 25.2102 17.6254 25.1338 17.8148C25.0573 18.0041 24.9435 18.1761 24.7991 18.3205C24.6547 18.4649 24.4827 18.5787 24.2934 18.6552C24.104 18.7316 23.9012 18.7691 23.6971 18.7655H22.1491V4.72446L12.8661 11.3905L3.58206 4.72446V18.7655H2.03506C1.83086 18.7693 1.62799 18.7318 1.43858 18.6554C1.24917 18.579 1.07711 18.4652 0.932698 18.3208C0.788282 18.1764 0.674471 18.0043 0.598073 17.8149C0.521674 17.6255 0.484256 17.4227 0.488056 17.2185V1.74646C0.484396 1.5423 0.52191 1.33949 0.598358 1.15015C0.674806 0.960804 0.788622 0.788804 0.933009 0.644416C1.0774 0.500029 1.2494 0.386213 1.43874 0.309765C1.62809 0.233317 1.83089 0.195803 2.03506 0.199463H2.55106L12.8661 7.67746L23.1811 0.199463H23.6971C23.9012 0.195803 24.104 0.233317 24.2934 0.309765C24.4827 0.386213 24.6547 0.500029 24.7991 0.644416C24.9435 0.788804 25.0573 0.960804 25.1338 1.15015C25.2102 1.33949 25.2477 1.5423 25.2441 1.74646Z" fill="#CD2900"/>
</svg>
