<svg width="27" height="27" viewBox="0 0 27 27" fill="none" xmlns="http://www.w3.org/2000/svg">
<path d="M18.1924 8.12592L6.91946 19.3989C6.39309 19.9252 5.49389 19.8046 5.17587 19.1357C4.60565 17.9623 4.27667 16.6355 4.27667 15.2428C4.25474 9.18961 10.3957 4.0137 12.4792 2.42364C12.8849 2.1166 13.4332 2.1166 13.828 2.42364C14.782 3.14739 16.5695 4.64972 18.2472 6.62359C18.6201 7.06223 18.5982 7.72018 18.1924 8.12592Z" fill="#5DD3B7"/>
<path opacity="0.4" d="M22.0414 15.2529C22.0414 20.1437 18.0608 24.1243 13.159 24.1243C11.1961 24.1243 9.36484 23.4883 7.88444 22.3917C7.34711 21.997 7.30325 21.2074 7.77478 20.7359L18.8175 9.6932C19.3329 9.1778 20.1992 9.28746 20.5501 9.92348C21.4493 11.5793 22.0524 13.3777 22.0414 15.2529Z" fill="#5DD3B7"/>
</svg>
