<svg width="20" height="13" viewBox="0 0 20 13" fill="none" xmlns="http://www.w3.org/2000/svg">
<path d="M10 5.5C10.5143 5.5 10.9993 5.59766 11.4551 5.79297C11.9108 5.98828 12.3079 6.25846 12.6465 6.60352C12.9915 6.94206 13.2617 7.33919 13.457 7.79492C13.6523 8.25065 13.75 8.73568 13.75 9.25C13.75 9.77083 13.6523 10.2591 13.457 10.7148C13.2617 11.1641 12.9915 11.5612 12.6465 11.9062C12.3079 12.2448 11.9108 12.5117 11.4551 12.707C10.9993 12.9023 10.5143 13 10 13C9.47917 13 8.99089 12.9023 8.53516 12.707C8.08594 12.5117 7.6888 12.2448 7.34375 11.9062C7.00521 11.5612 6.73828 11.1641 6.54297 10.7148C6.34766 10.2591 6.25 9.77083 6.25 9.25C6.25 8.73568 6.34766 8.25065 6.54297 7.79492C6.73828 7.33919 7.00521 6.94206 7.34375 6.60352C7.6888 6.25846 8.08594 5.98828 8.53516 5.79297C8.99089 5.59766 9.47917 5.5 10 5.5ZM10 11.75C10.3451 11.75 10.6673 11.6849 10.9668 11.5547C11.2728 11.4245 11.5397 11.2454 11.7676 11.0176C11.9954 10.7897 12.1745 10.526 12.3047 10.2266C12.4349 9.92057 12.5 9.59505 12.5 9.25C12.5 8.90495 12.4349 8.58268 12.3047 8.2832C12.1745 7.97721 11.9954 7.71029 11.7676 7.48242C11.5397 7.25456 11.2728 7.07552 10.9668 6.94531C10.6673 6.8151 10.3451 6.75 10 6.75C9.65495 6.75 9.32943 6.8151 9.02344 6.94531C8.72396 7.07552 8.46029 7.25456 8.23242 7.48242C8.00456 7.71029 7.82552 7.97721 7.69531 8.2832C7.5651 8.58268 7.5 8.90495 7.5 9.25C7.5 9.59505 7.5651 9.92057 7.69531 10.2266C7.82552 10.526 8.00456 10.7897 8.23242 11.0176C8.46029 11.2454 8.72396 11.4245 9.02344 11.5547C9.32943 11.6849 9.65495 11.75 10 11.75ZM10 0.5C10.931 0.5 11.8555 0.617188 12.7734 0.851562C13.6914 1.07943 14.5573 1.41797 15.3711 1.86719C16.1849 2.31641 16.9206 2.87305 17.5781 3.53711C18.2422 4.19466 18.7826 4.95312 19.1992 5.8125C19.4596 6.35286 19.6582 6.91276 19.7949 7.49219C19.9316 8.0651 20 8.65104 20 9.25H18.75C18.75 8.48177 18.6328 7.76237 18.3984 7.0918C18.1641 6.42122 17.8385 5.80924 17.4219 5.25586C17.0117 4.70247 16.5267 4.20768 15.9668 3.77148C15.4069 3.33529 14.8014 2.96745 14.1504 2.66797C13.5059 2.36849 12.8288 2.14062 12.1191 1.98438C11.4095 1.82812 10.7031 1.75 10 1.75C9.29688 1.75 8.59049 1.82812 7.88086 1.98438C7.17122 2.14062 6.49089 2.36849 5.83984 2.66797C5.19531 2.96745 4.5931 3.33529 4.0332 3.77148C3.47331 4.20768 2.98503 4.70247 2.56836 5.25586C2.1582 5.80924 1.83594 6.42122 1.60156 7.0918C1.36719 7.76237 1.25 8.48177 1.25 9.25H0C0 8.65104 0.0683594 8.0651 0.205078 7.49219C0.341797 6.91276 0.540365 6.35286 0.800781 5.8125C1.21745 4.95312 1.75456 4.19466 2.41211 3.53711C3.07617 2.87305 3.8151 2.31641 4.62891 1.86719C5.44271 1.41797 6.30859 1.07943 7.22656 0.851562C8.14453 0.617188 9.06901 0.5 10 0.5Z" fill="black" fill-opacity="0.8"/>
</svg>
