<svg width="29" height="29" viewBox="0 0 29 29" fill="none" xmlns="http://www.w3.org/2000/svg">
<path d="M14.5 29C22.5081 29 29 22.5081 29 14.5C29 6.49187 22.5081 0 14.5 0C6.49187 0 0 6.49187 0 14.5C0 22.5081 6.49187 29 14.5 29Z" fill="#FFF500"/>
<path d="M8.88855 25C8.84344 25.0007 8.79897 24.9888 8.75984 24.9657C8.65182 24.8999 8.66982 24.7266 8.66982 24.7247C8.69953 24.5134 9.38993 22.0455 9.68697 20.9936C8.34209 20.3294 7.17505 19.3371 6.28718 18.1031C5.46281 16.9473 5.01249 15.5538 5 14.1199C5.00198 13.0155 5.27211 11.9291 5.78581 10.9596C6.31966 9.95657 7.04937 9.07812 7.92902 8.37955C9.96215 6.79687 12.451 5.95979 14.9995 6.0015C17.5483 5.95965 20.0375 6.79674 22.0709 8.37955C22.9506 9.07814 23.6803 9.95659 24.2141 10.9596C24.7297 11.9282 25 13.0149 25 14.1194C25 15.2239 24.7297 16.3106 24.2141 17.2792C23.6803 18.2822 22.9506 19.1607 22.0709 19.8593C20.0375 21.4421 17.5483 22.2792 14.9995 22.2373C14.4054 22.2375 13.8119 22.1948 13.2236 22.1094C12.5728 22.5821 9.30891 24.9397 8.99747 24.9824C8.96236 24.9944 8.92555 25.0003 8.88855 25ZM7.99383 11.6936C7.91775 11.6905 7.84185 11.7032 7.77068 11.731C7.6995 11.7589 7.63451 11.8012 7.57962 11.8555C7.52472 11.9098 7.48104 11.975 7.45121 12.0471C7.42137 12.1192 7.40599 12.1968 7.40599 12.2752C7.40599 12.3535 7.42137 12.4311 7.45121 12.5032C7.48104 12.5754 7.52472 12.6405 7.57962 12.6948C7.63451 12.7491 7.6995 12.7915 7.77068 12.8193C7.84185 12.8471 7.91775 12.8598 7.99383 12.8567H8.89396V16.3812C8.90219 16.533 8.96657 16.6758 9.07388 16.7802C9.18118 16.8847 9.32325 16.9429 9.47094 16.9429C9.61862 16.9429 9.7607 16.8847 9.868 16.7802C9.9753 16.6758 10.0397 16.533 10.0479 16.3812V12.8595H10.948C11.0241 12.8626 11.1 12.8499 11.1712 12.8221C11.2424 12.7943 11.3074 12.7519 11.3623 12.6976C11.4172 12.6433 11.4608 12.5781 11.4907 12.506C11.5205 12.4339 11.5359 12.3563 11.5359 12.2779C11.5359 12.1996 11.5205 12.122 11.4907 12.0499C11.4608 11.9778 11.4172 11.9126 11.3623 11.8583C11.3074 11.804 11.2424 11.7616 11.1712 11.7338C11.1 11.706 11.0241 11.6933 10.948 11.6964L7.99383 11.6936ZM19.1671 11.6936C19.0142 11.6939 18.8675 11.7565 18.7594 11.8679C18.6512 11.9792 18.5904 12.1302 18.5901 12.2877V16.3515C18.5901 16.509 18.6509 16.6601 18.7591 16.7716C18.8673 16.883 19.0141 16.9455 19.1671 16.9455C19.3201 16.9455 19.4669 16.883 19.5751 16.7716C19.6833 16.6601 19.7441 16.509 19.7441 16.3515V15.054L19.9439 14.8483L21.2941 16.6944C21.3398 16.7566 21.397 16.809 21.4623 16.8485C21.5277 16.888 21.5999 16.9139 21.675 16.9247C21.75 16.9354 21.8264 16.9309 21.8998 16.9112C21.9731 16.8916 22.042 16.8573 22.1024 16.8102C22.1629 16.7632 22.2138 16.7044 22.2521 16.6371C22.2905 16.5698 22.3157 16.4954 22.3261 16.4181C22.3366 16.3408 22.3321 16.2622 22.313 16.1867C22.294 16.1112 22.2606 16.0403 22.215 15.978L20.7973 14.042L22.1123 12.688C22.1575 12.6405 22.1922 12.5836 22.2141 12.5211C22.236 12.4586 22.2446 12.3919 22.2393 12.3257C22.2284 12.1771 22.1644 12.0381 22.0596 11.9353C21.9548 11.8326 21.8168 11.7736 21.6722 11.7696C21.6131 11.769 21.5544 11.7804 21.4996 11.8032C21.4448 11.8259 21.3948 11.8595 21.3526 11.9021L19.7441 13.5638V12.2877C19.7439 12.1302 19.683 11.9792 19.5748 11.8679C19.4667 11.7565 19.3201 11.6939 19.1671 11.6936ZM12.0048 15.9122H13.7636L14.049 16.6823C14.0932 16.7716 14.1631 16.8447 14.2491 16.8917C14.3351 16.9386 14.4331 16.9571 14.5297 16.9446C14.6561 16.9449 14.781 16.9171 14.896 16.8631C15.0553 16.788 15.2084 16.5804 15.0319 16.0188L13.6529 12.2803C13.5944 12.1159 13.4904 11.9728 13.3538 11.8686C13.2172 11.7643 13.054 11.7035 12.8842 11.6936C12.7146 11.7035 12.5514 11.7641 12.4149 11.8682C12.2783 11.9723 12.1742 12.1152 12.1155 12.2793L10.7356 16.0197C10.561 16.5758 10.7131 16.788 10.8724 16.8631C10.9874 16.9172 11.1124 16.945 11.2388 16.9446C11.3352 16.957 11.4331 16.9385 11.5189 16.8915C11.6048 16.8446 11.6745 16.7716 11.7186 16.6823L12.0039 15.9122H12.0048ZM15.9978 11.6936C15.8432 11.6921 15.6944 11.7539 15.5841 11.8653C15.4737 11.9766 15.4107 12.1286 15.4091 12.2877V16.3218C15.4105 16.395 15.4259 16.4672 15.4545 16.5342C15.483 16.6013 15.5242 16.6618 15.5755 16.7125C15.6269 16.7631 15.6874 16.8028 15.7537 16.8293C15.82 16.8558 15.8907 16.8685 15.9618 16.8668H17.8124C17.8837 16.8698 17.9548 16.858 18.0216 16.832C18.0883 16.806 18.1492 16.7663 18.2007 16.7155C18.2522 16.6646 18.2931 16.6036 18.3211 16.536C18.3491 16.4685 18.3635 16.3958 18.3635 16.3223C18.3635 16.2488 18.3491 16.1762 18.3211 16.1086C18.2931 16.041 18.2522 15.98 18.2007 15.9291C18.1492 15.8783 18.0883 15.8386 18.0216 15.8126C17.9548 15.7866 17.8837 15.7748 17.8124 15.7778H16.5865V12.2877C16.5846 12.1286 16.5215 11.9769 16.4112 11.8655C16.3009 11.7542 16.1522 11.6924 15.9978 11.6936ZM13.4612 14.8603H12.3081L12.8842 13.1746L13.4612 14.8603Z" fill="#3B1A1A"/>
</svg>
