<svg width="24" height="24" viewBox="0 0 24 24" fill="none" xmlns="http://www.w3.org/2000/svg">
<path fill-rule="evenodd" clip-rule="evenodd" d="M12 18C15.3137 18 18 15.3137 18 12C18 8.68629 15.3137 6 12 6C8.68629 6 6 8.68629 6 12C6 15.3137 8.68629 18 12 18Z" fill="#5DD3B7"/>
<path fill-rule="evenodd" clip-rule="evenodd" d="M11.9945 1.5C12.5468 1.5 12.9945 1.94772 12.9945 2.5V3.5C12.9945 4.05228 12.5468 4.5 11.9945 4.5C11.4422 4.5 10.9945 4.05228 10.9945 3.5V2.5C10.9945 1.94772 11.4422 1.5 11.9945 1.5Z" fill="#5DD3B7"/>
<path fill-rule="evenodd" clip-rule="evenodd" d="M11.9945 19.5C12.5468 19.5 12.9945 19.9477 12.9945 20.5V21.4968C12.9945 22.0491 12.5468 22.4968 11.9945 22.4968C11.4422 22.4968 10.9945 22.0491 10.9945 21.4968V20.5C10.9945 19.9477 11.4422 19.5 11.9945 19.5Z" fill="#5DD3B7"/>
<path fill-rule="evenodd" clip-rule="evenodd" d="M1.49609 11.9984C1.49609 11.4461 1.94381 10.9984 2.49609 10.9984H3.49609C4.04838 10.9984 4.49609 11.4461 4.49609 11.9984C4.49609 12.5507 4.04838 12.9984 3.49609 12.9984H2.49609C1.94381 12.9984 1.49609 12.5507 1.49609 11.9984Z" fill="#5DD3B7"/>
<path fill-rule="evenodd" clip-rule="evenodd" d="M19.4961 11.9984C19.4961 11.4461 19.9438 10.9984 20.4961 10.9984H21.4929C22.0452 10.9984 22.4929 11.4461 22.4929 11.9984C22.4929 12.5507 22.0452 12.9984 21.4929 12.9984H20.4961C19.9438 12.9984 19.4961 12.5507 19.4961 11.9984Z" fill="#5DD3B7"/>
<path fill-rule="evenodd" clip-rule="evenodd" d="M4.5711 19.4219C4.18057 19.0313 4.18057 18.3982 4.5711 18.0077L5.2782 17.3005C5.66873 16.91 6.30189 16.91 6.69242 17.3005C7.08294 17.6911 7.08294 18.3242 6.69242 18.7148L5.98531 19.4219C5.59479 19.8124 4.96162 19.8124 4.5711 19.4219Z" fill="#5DD3B7"/>
<path fill-rule="evenodd" clip-rule="evenodd" d="M17.299 6.69394C16.9085 6.30342 16.9085 5.67025 17.299 5.27973L18.0038 4.5749C18.3944 4.18438 19.0275 4.18438 19.4181 4.5749C19.8086 4.96543 19.8086 5.59859 19.4181 5.98911L18.7132 6.69394C18.3227 7.08447 17.6895 7.08447 17.299 6.69394Z" fill="#5DD3B7"/>
<path fill-rule="evenodd" clip-rule="evenodd" d="M4.5711 4.5749C4.96162 4.18438 5.59479 4.18438 5.98531 4.5749L6.69242 5.28201C7.08294 5.67253 7.08294 6.3057 6.69242 6.69622C6.30189 7.08675 5.66873 7.08675 5.2782 6.69622L4.5711 5.98911C4.18057 5.59859 4.18057 4.96543 4.5711 4.5749Z" fill="#5DD3B7"/>
<path fill-rule="evenodd" clip-rule="evenodd" d="M17.299 17.3028C17.6895 16.9123 18.3227 16.9123 18.7132 17.3028L19.4181 18.0077C19.8086 18.3982 19.8086 19.0313 19.4181 19.4219C19.0275 19.8124 18.3944 19.8124 18.0038 19.4219L17.299 18.717C16.9085 18.3265 16.9085 17.6933 17.299 17.3028Z" fill="#5DD3B7"/>
</svg>
