<svg width="20" height="20" viewBox="0 0 20 20" fill="none" xmlns="http://www.w3.org/2000/svg">
<path fill-rule="evenodd" clip-rule="evenodd" d="M0.993106 7.10527C0.360964 7.6742 0 8.4847 0 9.33516V16.9991C0 18.6559 1.34315 19.9991 3 19.9991H17C18.6569 19.9991 20 18.6559 20 16.9991V9.33516C20 8.4847 19.639 7.6742 19.0069 7.10527L12.0069 0.805273C10.866 -0.22155 9.13402 -0.221549 7.9931 0.805274L0.993106 7.10527ZM9 10.9991C7.89543 10.9991 7 11.8945 7 12.9991V16.9991C7 17.5514 7.44772 17.9991 8 17.9991H12C12.5523 17.9991 13 17.5514 13 16.9991V12.9991C13 11.8945 12.1046 10.9991 11 10.9991H9Z" fill="#5DD3B7"/>
</svg>
