<svg width="27" height="27" viewBox="0 0 27 27" fill="none" xmlns="http://www.w3.org/2000/svg">
<path opacity="0.4" d="M22.6118 9.26708C21.4604 4.20083 17.0412 1.91992 13.1592 1.91992C13.1592 1.91992 13.1592 1.91992 13.1483 1.91992C9.27728 1.91992 4.84705 4.18987 3.69563 9.25612C2.41262 14.9145 5.87785 19.7066 9.0141 22.7223C10.1765 23.8408 11.6679 24.4 13.1592 24.4C14.6506 24.4 16.1419 23.8408 17.2934 22.7223C20.4296 19.7066 23.8948 14.9255 22.6118 9.26708Z" fill="#5DD3B7"/>
<path d="M13.1592 14.7601C15.067 14.7601 16.6135 13.2136 16.6135 11.3058C16.6135 9.39809 15.067 7.85156 13.1592 7.85156C11.2515 7.85156 9.70496 9.39809 9.70496 11.3058C9.70496 13.2136 11.2515 14.7601 13.1592 14.7601Z" fill="#5DD3B7"/>
</svg>
