<svg width="20" height="19" viewBox="0 0 20 19" fill="none" xmlns="http://www.w3.org/2000/svg">
<path d="M17.3812 13.874L5.14408 1.63682C4.24009 0.73283 2.77443 0.73283 1.87044 1.63682C0.966451 2.54081 0.966452 4.00647 1.87044 4.91046L14.1076 17.1476C15.0116 18.0516 16.4772 18.0516 17.3812 17.1476C18.2852 16.2436 18.2852 14.7779 17.3812 13.874Z" fill="#5DD3B7"/>
<path d="M1.63685 13.874L13.874 1.63682C14.778 0.73283 16.2436 0.73283 17.1476 1.63682C18.0516 2.54081 18.0516 4.00647 17.1476 4.91046L4.91049 17.1476C4.0065 18.0516 2.54084 18.0516 1.63685 17.1476C0.732854 16.2436 0.732856 14.7779 1.63685 13.874Z" fill="#5DD3B7"/>
</svg>
