<svg width="20" height="20" viewBox="0 0 20 20" fill="none" xmlns="http://www.w3.org/2000/svg">
<path d="M10.0192 0.837901C8.20145 0.83977 6.42507 1.3805 4.91458 2.39175C3.40409 3.40299 2.22731 4.83935 1.53298 6.51926C0.838659 8.19917 0.657962 10.0472 1.01373 11.8298C1.3695 13.6124 2.24577 15.2495 3.53177 16.5342C4.81776 17.8188 6.45576 18.6934 8.23872 19.0474C10.0217 19.4013 11.8695 19.2187 13.5487 18.5227C15.2279 17.8266 16.6631 16.6483 17.6728 15.1368C18.6825 13.6253 19.2214 11.8484 19.2214 10.0306C19.2219 8.82245 18.9842 7.62605 18.5218 6.50987C18.0595 5.39369 17.3815 4.37966 16.5268 3.5258C15.672 2.67195 14.6573 1.99504 13.5406 1.53381C12.424 1.07259 11.2273 0.836105 10.0192 0.837901ZM16.39 6.35353H13.6784C13.3909 5.21499 12.965 4.11595 12.4103 3.08092C14.0869 3.65837 15.4996 4.82006 16.39 6.35353ZM10.0286 2.71321C10.8007 3.82729 11.3931 5.05569 11.7842 6.35353H8.27311C8.66416 5.05569 9.25655 3.82729 10.0286 2.71321ZM2.91402 11.8692C2.59536 10.6642 2.59536 9.39705 2.91402 8.19207H6.02063C5.94071 8.80175 5.89791 9.41573 5.89246 10.0306C5.89791 10.6455 5.94071 11.2595 6.02063 11.8692H2.91402ZM3.67255 13.7077H6.37888C6.66642 14.8462 7.09228 15.9453 7.64695 16.9803C5.97055 16.4049 4.55888 15.2425 3.67255 13.7077ZM6.38413 6.35353H3.6673C4.55518 4.8175 5.96926 3.65496 7.648 3.08092C7.09296 4.1159 6.66675 5.21494 6.37888 6.35353H6.38413ZM10.0286 17.348C9.25655 16.2339 8.66416 15.0055 8.27311 13.7077H11.7842C11.3931 15.0055 10.8007 16.2339 10.0286 17.348ZM12.1824 11.8692H7.87493C7.78412 11.2604 7.73498 10.6461 7.72785 10.0306C7.73461 9.41511 7.78376 8.80081 7.87493 8.19207H12.1824C12.2735 8.80081 12.3227 9.41511 12.3295 10.0306C12.3223 10.6461 12.2732 11.2604 12.1824 11.8692ZM12.4124 16.9803C12.9671 15.9453 13.393 14.8462 13.6805 13.7077H16.3921C15.5009 15.2417 14.087 16.4035 12.4093 16.9803H12.4124ZM14.0367 11.8692C14.1166 11.2595 14.1594 10.6455 14.1648 10.0306C14.1594 9.41573 14.1166 8.80175 14.0367 8.19207H17.1443C17.463 9.39704 17.463 10.6642 17.1443 11.8692H14.0367Z" fill="#5DD3B7"/>
</svg>
