<svg width="27" height="27" viewBox="0 0 27 27" fill="none" xmlns="http://www.w3.org/2000/svg">
<path opacity="0.4" d="M10.9658 4.11168H12.3365V9.32049C12.3365 9.7701 12.7093 10.1429 13.1589 10.1429C13.6085 10.1429 13.9814 9.7701 13.9814 9.32049V4.11168H15.3521C15.8017 4.11168 16.1746 3.73884 16.1746 3.28924C16.1746 2.83964 15.8017 2.4668 15.3521 2.4668H10.9658C10.5162 2.4668 10.1433 2.83964 10.1433 3.28924C10.1433 3.73884 10.5162 4.11168 10.9658 4.11168Z" fill="#5DD3B7"/>
<path opacity="0.4" d="M15.3521 22.2051H13.9814V16.9963C13.9814 16.5467 13.6085 16.1738 13.1589 16.1738C12.7093 16.1738 12.3365 16.5467 12.3365 16.9963V22.2051H10.9658C10.5162 22.2051 10.1433 22.5779 10.1433 23.0275C10.1433 23.4771 10.5162 23.85 10.9658 23.85H15.3521C15.8017 23.85 16.1746 23.4771 16.1746 23.0275C16.1746 22.5779 15.8017 22.2051 15.3521 22.2051Z" fill="#5DD3B7"/>
<path opacity="0.4" d="M3.10298 10.8331C3.23457 10.9099 3.37712 10.9427 3.50871 10.9427C3.79383 10.9427 4.06798 10.8002 4.2215 10.526L4.91235 9.34173L9.43031 11.9516C9.55093 12.0284 9.69349 12.0613 9.83605 12.0613C10.1212 12.0613 10.3953 11.9187 10.5488 11.6446C10.7791 11.2498 10.6366 10.7454 10.2528 10.526L5.74576 7.91616L6.42565 6.73184C6.65593 6.33707 6.51338 5.83263 6.12957 5.61331C5.7348 5.38303 5.23036 5.51462 5.01104 5.90939L2.81786 9.7036C2.57661 10.1093 2.7082 10.6028 3.10298 10.8331Z" fill="#5DD3B7"/>
<path opacity="0.4" d="M23.2146 15.4833C22.8198 15.2531 22.3154 15.3846 22.0961 15.7794L21.4052 16.9637L16.8873 14.3648C16.4925 14.1345 15.9881 14.2771 15.7687 14.6609C15.5385 15.0557 15.681 15.5601 16.0648 15.7794L20.5718 18.3893L19.8919 19.5736C19.6616 19.9684 19.8042 20.4728 20.188 20.6921C20.3196 20.7689 20.4622 20.8018 20.5937 20.8018C20.8789 20.8018 21.153 20.6593 21.3065 20.3851L23.4997 16.5909C23.741 16.2071 23.6094 15.7136 23.2146 15.4833Z" fill="#5DD3B7"/>
<path opacity="0.4" d="M20.5828 7.91691L16.0758 10.5268C15.681 10.7571 15.5494 11.2615 15.7797 11.6453C15.9332 11.9085 16.2074 12.062 16.4925 12.062C16.635 12.062 16.7776 12.0291 16.8982 11.9524L21.4052 9.34248L22.0961 10.5268C22.2496 10.79 22.5237 10.9435 22.8088 10.9435C22.9514 10.9435 23.094 10.9106 23.2146 10.8338C23.6094 10.6036 23.7409 10.0991 23.5107 9.71532L21.3175 5.92111C21.0872 5.52634 20.5828 5.39475 20.199 5.62503C19.8042 5.85532 19.6726 6.35975 19.9029 6.74356L20.5828 7.91691Z" fill="#5DD3B7"/>
<path opacity="0.4" d="M5.73482 18.3995L10.2418 15.7896C10.6366 15.5594 10.7682 15.0549 10.5379 14.6711C10.3076 14.2763 9.80317 14.1447 9.41936 14.375L4.91237 16.9849L4.22152 15.8006C3.99124 15.4058 3.4868 15.2742 3.103 15.5045C2.70822 15.7348 2.57663 16.2392 2.80692 16.623L5.0001 20.4173C5.15362 20.6804 5.42777 20.834 5.71289 20.834C5.85544 20.834 5.998 20.8011 6.11862 20.7243C6.5134 20.494 6.64499 19.9896 6.4147 19.6058L5.73482 18.3995Z" fill="#5DD3B7"/>
<path d="M16.9971 13.1584C16.9971 13.8602 16.8106 14.5072 16.4817 15.0774C15.8127 16.2288 14.5736 16.9965 13.159 16.9965C11.7444 16.9965 10.5052 16.2288 9.83632 15.0774C9.50734 14.5072 9.32092 13.8602 9.32092 13.1584C9.32092 12.4566 9.50734 11.8096 9.83632 11.2393C10.5052 10.0879 11.7444 9.32031 13.159 9.32031C14.5736 9.32031 15.8127 10.0879 16.4817 11.2393C16.8106 11.8096 16.9971 12.4566 16.9971 13.1584Z" fill="#5DD3B7"/>
</svg>
