<svg width="28" height="32" viewBox="0 0 28 32" fill="none" xmlns="http://www.w3.org/2000/svg">
<path d="M20.2651 13.434C20.5722 13.434 20.8354 13.1708 20.8134 12.8637C20.5174 8.89406 17.2057 5.75781 13.1592 5.75781C9.11283 5.75781 5.80114 8.88309 5.50506 12.8637C5.48313 13.1708 5.74631 13.434 6.05336 13.434H20.2651Z" fill="#5DD3B7"/>
<path d="M24.125 14.2548H24.0372C23.4341 14.2548 22.9406 13.7613 22.9406 13.1582C22.9406 12.5551 23.4341 12.0616 24.0372 12.0616C24.6404 12.0616 25.1777 12.5551 25.1777 13.1582C25.1777 13.7613 24.7281 14.2548 24.125 14.2548ZM2.2809 14.2548H2.19315C1.59002 14.2548 1.09656 13.7613 1.09656 13.1582C1.09656 12.5551 1.59002 12.0616 2.19315 12.0616C2.79627 12.0616 3.33358 12.5551 3.33358 13.1582C3.33358 13.7613 2.88402 14.2548 2.2809 14.2548ZM20.8462 6.5677C20.5611 6.5677 20.2869 6.45803 20.0676 6.24968C19.6399 5.82201 19.6399 5.13115 20.0676 4.70348L20.2101 4.56094C20.6378 4.13327 21.3287 4.13327 21.7564 4.56094C22.184 4.98861 22.184 5.67946 21.7564 6.10713L21.6138 6.24968C21.4055 6.45803 21.1313 6.5677 20.8462 6.5677ZM5.47195 6.5677C5.18683 6.5677 4.91273 6.45803 4.69341 6.24968L4.55085 6.10713C4.12318 5.67946 4.12318 4.98861 4.55085 4.56094C4.97852 4.13327 5.66934 4.13327 6.09701 4.56094L6.23957 4.70348C6.66724 5.13115 6.66724 5.82201 6.23957 6.24968C6.03122 6.45803 5.74609 6.5677 5.47195 6.5677ZM13.1591 3.33274C12.5559 3.33274 12.0625 2.88315 12.0625 2.28002V2.19229C12.0625 1.58917 12.5559 1.0957 13.1591 1.0957C13.7622 1.0957 14.2557 1.58917 14.2557 2.19229C14.2557 2.79542 13.7622 3.33274 13.1591 3.33274Z" fill="#5DD3B7"/>
<path d="M12.9337 19.6851V26.8343C12.9337 28.1492 12.0166 29.0884 10.6077 29.0884C9.19889 29.0884 8.27624 28.1492 8.27624 26.8343V19.6851H5.92818V27.0331C5.92818 29.5083 7.79006 31.1602 10.6077 31.1602C13.4088 31.1602 15.2873 29.5083 15.2873 27.0331V19.6851H12.9337ZM19.1248 19.6851H16.5171L20.4287 31H23.4453L27.3569 19.6851H24.7547L21.9922 28.3204H21.8817L19.1248 19.6851Z" fill="#5DD3B7"/>
</svg>
